<mxfile host="app.diagrams.net" modified="2023-07-24T07:00:07.798Z" agent="Mozilla/5.0 (Macintosh; Intel Mac OS X 10.15; rv:109.0) Gecko/20100101 Firefox/114.0" version="21.6.5" etag="INGijyVG3Bdwnvc7rsMH" type="github">
  <diagram name="第 1 页" id="Jy1cQIlJH9IfDjADXr3r">
    <mxGraphModel>
      <root>
        <mxCell id="0" />
        <mxCell id="1" parent="0" />
      </root>
    </mxGraphModel>
  </diagram>
</mxfile>
